<svg width="134" height="101" viewBox="0 0 134 101" fill="none" xmlns="http://www.w3.org/2000/svg">
<rect y="96" width="134" height="5" rx="2.5" fill="black"/>
<path d="M45.1676 46.7604C53.664 61.8947 48.7078 86.4769 45.1676 96.8762H97.5738C102.087 46.3125 84.6947 19.9463 77.2728 10.8656C70.4274 2.49018 63.3238 1.11659 59.9324 1.97509C53.4768 -2.38526 49.7393 1.4796 48.6776 3.95707C40.8063 3.10765 39.407 9.01681 39.6913 12.0776C35.3767 16.89 34.547 27.8425 45.1676 46.7604Z" fill="black"/>
<ellipse cx="44.1942" cy="23.0776" rx="3.91566" ry="4.99926" transform="rotate(-31.7362 44.1942 23.0776)" fill="#F2A9A0"/>
<ellipse cx="48.6259" cy="12.9995" rx="3.91566" ry="4.99926" transform="rotate(-31.7362 48.6259 12.9995)" fill="#F2A9A0"/>
<ellipse cx="56.7026" cy="8.35347" rx="3.91566" ry="4.99926" transform="rotate(-31.7362 56.7026 8.35347)" fill="#F2A9A0"/>
<ellipse cx="67.4957" cy="10.4548" rx="3.91566" ry="4.99926" transform="rotate(-31.7362 67.4957 10.4548)" fill="#F2A9A0"/>
<ellipse cx="53.8851" cy="49.9099" rx="3.91566" ry="4.99926" transform="rotate(-31.7362 53.8851 49.9099)" fill="#F2A9A0"/>
<path fill-rule="evenodd" clip-rule="evenodd" d="M70.7624 20.2796C72.9563 20.7763 74.7317 21.9172 75.7268 23.6758C78.2111 28.0661 74.891 34.6435 68.3111 38.3667C61.7313 42.0899 54.3833 41.5491 51.899 37.1588C50.778 35.1776 50.8389 32.751 51.848 30.3423C51.6655 29.5441 51.5691 28.7132 51.5691 27.8597C51.5691 21.7329 56.5358 16.7662 62.6626 16.7662C65.8582 16.7662 68.7382 18.1174 70.7624 20.2796Z" fill="#F2A9A0"/>
</svg>
