<svg width="68" height="31" viewBox="0 0 68 31" fill="none" xmlns="http://www.w3.org/2000/svg">
<path d="M4.32812 30.1562C2.57812 30.1562 1.625 29.5 1.625 28.3125C1.625 27.5156 2.1875 27 3.09375 27C3.42188 27 3.57812 27.0156 3.9375 27.0156C4.8125 27.0156 5.71875 26.5625 6.29688 25.1094L6.57812 24.2969L1.15625 10.0312C1.01562 9.64062 0.9375 9.23438 0.9375 8.92188C0.9375 7.85938 1.79688 7.10938 2.9375 7.10938C3.92188 7.10938 4.46875 7.54688 4.79688 8.64062L8.75 20.6875H8.8125L12.7656 8.625C13.0938 7.5625 13.6562 7.10938 14.6406 7.10938C15.75 7.10938 16.5312 7.84375 16.5312 8.875C16.5312 9.1875 16.4531 9.625 16.3125 10L10.8594 24.5938C9.35938 28.7188 7.64062 30.1562 4.32812 30.1562ZM25.5312 24.3281C20.6719 24.3281 17.5156 21.0938 17.5156 15.7188C17.5156 10.375 20.7031 7.09375 25.5312 7.09375C30.3594 7.09375 33.5469 10.3594 33.5469 15.7188C33.5469 21.0938 30.3906 24.3281 25.5312 24.3281ZM25.5312 21.25C28 21.25 29.5938 19.25 29.5938 15.7188C29.5938 12.2031 28 10.1875 25.5312 10.1875C23.0781 10.1875 21.4688 12.2031 21.4688 15.7188C21.4688 19.25 23.0625 21.25 25.5312 21.25ZM37.9844 24.3125C36.8125 24.3125 36.0469 23.5625 36.0469 22.2656V9.09375C36.0469 7.82812 36.8125 7.10938 37.9062 7.10938C39 7.10938 39.7812 7.82812 39.7812 9.09375V10.3125H39.8594C40.5781 8.39062 42.3281 7.125 44.5781 7.125C46.9219 7.125 48.5938 8.32812 49.2031 10.4531H49.2969C50.0938 8.40625 52.0625 7.125 54.4531 7.125C57.7188 7.125 59.8594 9.32812 59.8594 12.6406V22.2656C59.8594 23.5625 59.0781 24.3125 57.9219 24.3125C56.75 24.3125 55.9688 23.5625 55.9688 22.2656V13.5938C55.9688 11.5625 54.9062 10.4062 53 10.4062C51.125 10.4062 49.8438 11.7812 49.8438 13.7656V22.2656C49.8438 23.5625 49.1094 24.3125 47.9531 24.3125C46.7812 24.3125 46.0625 23.5625 46.0625 22.2656V13.3906C46.0625 11.5469 44.9375 10.4062 43.125 10.4062C41.25 10.4062 39.9375 11.8594 39.9375 13.8594V22.2656C39.9375 23.5625 39.1406 24.3125 37.9844 24.3125ZM65.0156 5.10938C63.8125 5.10938 62.8594 4.17188 62.8594 3C62.8594 1.8125 63.8125 0.890625 65.0156 0.890625C66.2344 0.890625 67.1875 1.8125 67.1875 3C67.1875 4.17188 66.2344 5.10938 65.0156 5.10938ZM65.0156 24.3125C63.8281 24.3125 63.0781 23.5312 63.0781 22.2656V9.15625C63.0781 7.90625 63.8281 7.10938 65.0156 7.10938C66.2031 7.10938 66.9688 7.90625 66.9688 9.17188V22.2656C66.9688 23.5312 66.2031 24.3125 65.0156 24.3125Z" fill="#EEEFFB"/>
</svg>
