<svg width="121" height="52" viewBox="0 0 121 52" fill="none" xmlns="http://www.w3.org/2000/svg">
<path d="M115.902 9.42113C113.192 9.42113 111.113 7.44745 111.113 4.8685C111.113 2.26323 113.192 0.289551 115.902 0.289551C118.613 0.289551 120.665 2.26323 120.665 4.8685C120.665 7.44745 118.613 9.42113 115.902 9.42113ZM115.902 41.6053C112.955 41.6053 111.244 39.8422 111.244 36.7632V16.579C111.244 13.5264 112.955 11.7369 115.902 11.7369C118.823 11.7369 120.56 13.5264 120.56 16.579V36.7632C120.56 39.8422 118.823 41.6053 115.902 41.6053Z" fill="#20212D"/>
<path d="M68.0989 41.6052C65.3621 41.6052 63.441 40.0263 63.441 36.7631V16.4737C63.441 13.2894 65.3095 11.7368 67.9937 11.7368C70.6516 11.7368 72.52 13.2631 72.52 16.4737V17.8684H72.7042C73.8358 14.1842 76.9674 11.7894 80.8884 11.7894C85.1516 11.7894 88.0463 14 88.8621 17.8947H89.0463C90.1516 14.2105 93.6253 11.7894 97.8884 11.7894C103.494 11.7894 107.309 15.7368 107.309 21.5526V36.7631C107.309 40.0263 105.362 41.6052 102.625 41.6052C99.8884 41.6052 97.9674 40.0263 97.9674 36.7631V23.921C97.9674 20.921 96.5726 19.3684 93.941 19.3684C91.4147 19.3684 89.8358 21.1842 89.8358 24V36.7631C89.8358 40.0263 88.0989 41.6052 85.3621 41.6052C82.6253 41.6052 80.9147 40.0263 80.9147 36.7631V23.8158C80.9147 20.9473 79.4937 19.3684 76.941 19.3684C74.4147 19.3684 72.7831 21.2368 72.7831 24.0526V36.7631C72.7831 40.0263 70.8358 41.6052 68.0989 41.6052Z" fill="#20212D"/>
<path d="M45.7169 41.6843C36.6905 41.6843 31.059 36.2106 31.059 26.658C31.059 17.2895 36.8221 11.658 45.7169 11.658C54.6642 11.658 60.3748 17.2632 60.3748 26.658C60.3748 36.2369 54.7432 41.6843 45.7169 41.6843ZM45.7169 34.8422C48.9011 34.8422 50.9274 31.9211 50.9274 26.6843C50.9274 21.5264 48.9011 18.5001 45.7169 18.5001C42.559 18.5001 40.5326 21.5264 40.5326 26.6843C40.5326 31.9211 42.5063 34.8422 45.7169 34.8422Z" fill="#20212D"/>
<path d="M8.25578 51.5526C4.30841 51.5526 2.15052 50.0263 2.15052 47.2631C2.15052 45.421 3.43999 44.2895 5.49262 44.2895C5.93999 44.2895 6.2821 44.3158 6.72947 44.3158C7.86105 44.3158 9.20315 44 10.0453 42.7368L10.2821 42.1842L1.54526 18.8947C1.17683 17.9473 0.966309 16.8684 0.966309 16.0789C0.966309 13.5789 3.07157 11.7368 5.83473 11.7368C8.33473 11.7368 9.59789 12.7894 10.361 15.5789L15.7295 34H15.8874L21.2558 15.4737C21.9926 12.8947 23.3874 11.7368 25.7821 11.7368C28.4663 11.7368 30.3347 13.4737 30.3347 15.8947C30.3347 16.6842 30.0979 17.8421 29.7821 18.7368L21.8874 40.7368C19.1242 48.5526 15.3084 51.5526 8.25578 51.5526Z" fill="#20212D"/>
</svg>
